<?xml version="1.0" encoding="UTF-8"?><svg id="Layer_2" xmlns="http://www.w3.org/2000/svg" viewBox="0 0 246.05 118.72"><defs><style>.cls-1{fill:#3cc;}</style></defs><g id="Layer_1-2"><path class="cls-1" d="M49.52,19.38C22.14,19.38,0,41.52,0,68.89s22.14,49.52,49.52,49.52,49.82-22.14,49.82-49.52S76.89,19.38,49.52,19.38h0Zm0,86.43c-20.3,0-36.6-16.61-36.6-36.6S29.52,32.6,49.52,32.6s36.6,16.61,36.6,36.6-16.3,36.6-36.6,36.6Z"/><path class="cls-1" d="M196.53,19.38c-27.37,0-49.52,22.14-49.52,49.52s22.14,49.82,49.52,49.82,49.52-22.45,49.52-49.82-22.14-49.52-49.52-49.52h0Zm0,86.43c-20.3,0-36.6-16.61-36.6-36.6s16.61-36.6,36.6-36.6,36.6,16.61,36.6,36.6-16.61,36.6-36.6,36.6h0Z"/><path class="cls-1" d="M133.79,27.99c0,5.94-4.82,10.77-10.77,10.77s-10.77-4.82-10.77-10.77,4.82-10.76,10.77-10.76,10.77,4.82,10.77,10.76"/><path class="cls-1" d="M167.31,23.68h-16.61c-2.15-13.53-13.84-23.68-27.68-23.68s-25.53,10.15-27.68,23.68h-16.3c14.76,9.84,24.61,26.14,24.61,45.21,0,6.77-1.23,13.22-3.69,19.38,4.92-7.38,13.53-11.99,23.07-11.99s17.84,4.61,23.07,11.99c-2.46-6.15-3.69-12.61-3.69-19.38,0-18.76,9.84-35.37,24.91-45.21h0Zm-44.29,19.38c-8.3,0-15.07-6.77-15.07-15.07v-2.15c0-.31,0-.62,.31-.92,0-.31,.31-.62,.31-.92,1.85-6.15,7.69-10.77,14.46-10.77s12.61,4.61,14.46,10.77c0,.31,.31,.62,.31,.92s0,.62,.31,.92v2.15c0,8.3-6.76,15.07-15.07,15.07h0Z"/><path class="cls-1" d="M48.9,96.58c-14.76-1.85-26.14-14.15-26.76-28.91,0-1.23-.92-2.46-2.15-2.46s-2.15,1.23-2.15,2.77c.62,16.92,13.84,31.06,30.76,32.91,1.54,.31,2.77-.62,3.08-1.85-.31-1.23-1.23-2.15-2.77-2.46h0Z"/><path class="cls-1" d="M196.23,96.58c-14.76-1.85-26.14-14.15-26.76-28.91,0-1.23-.92-2.46-2.15-2.46s-2.15,1.23-2.15,2.77c.62,16.92,13.84,31.06,30.76,32.91,1.54,.31,2.77-.62,3.08-1.85-.31-1.23-1.54-2.15-2.77-2.46h0Z"/></g></svg>