<?xml version="1.0" encoding="UTF-8"?><svg id="Layer_2" xmlns="http://www.w3.org/2000/svg" viewBox="0 0 16 17.62"><defs><style>.cls-1{fill:#555;}</style></defs><g id="Layer_1-2"><path class="cls-1" d="M13.93,7.94h-3.93v-3.44h-1.29c.4-.53,.61-1.18,.61-1.85,0-.99-.47-1.92-1.22-2.43l-.32-.22-.32,.22c-.75,.51-1.22,1.44-1.22,2.43,0,.67,.21,1.32,.61,1.85h-1.43v3.44H2.07c-.55,0-1.08,.22-1.46,.61-.39,.39-.61,.92-.61,1.47v6.45c0,.3,.12,.6,.34,.81,.21,.22,.5,.34,.81,.34H14.86c.3,0,.59-.12,.81-.34,.21-.22,.33-.51,.34-.81v-6.45c0-.55-.22-1.08-.61-1.47-.39-.39-.91-.61-1.46-.61ZM7.79,1.46c.25,.31,.4,.73,.4,1.18s-.15,.87-.4,1.18c-.25-.31-.4-.73-.4-1.18s.15-.87,.4-1.18Zm-1.21,4.18h2.29v2.29h-2.29v-2.29ZM1.14,10.02c0-.25,.1-.48,.27-.66,.17-.17,.41-.27,.66-.27H13.93c.25,0,.48,.1,.66,.27,.17,.17,.27,.41,.27,.66v1.13l-.77,.34c-.15,.07-.31,.1-.48,.1s-.33-.03-.48-.1l-1.34-.59-1.34,.59c-.15,.07-.31,.1-.48,.1s-.33-.03-.48-.1l-1.34-.59-1.34,.59c-.15,.07-.31,.1-.48,.1s-.33-.03-.48-.1l-1.34-.59-1.34,.59c-.15,.07-.31,.1-.48,.1s-.33-.03-.48-.1l-1.06-.47v-1.01Zm13.71,6.45H1.14v-4.19l.6,.26c.3,.13,.62,.2,.94,.2s.64-.07,.94-.2l.88-.39,.88,.39c.3,.13,.62,.2,.94,.2s.64-.07,.94-.2l.88-.39,.88,.39c.3,.13,.62,.2,.94,.2s.64-.07,.94-.2l.88-.39,.88,.39c.3,.13,.62,.2,.94,.2s.64-.07,.94-.2l.31-.14v4.07h0Z"/></g></svg>