<?xml version="1.0" encoding="UTF-8"?><svg id="Layer_2" xmlns="http://www.w3.org/2000/svg" viewBox="0 0 40.6 40.6"><defs><style>.cls-1{fill:#fff;}</style></defs><g id="Layer_1-2"><path class="cls-1" d="M12.15,24.4H28.45v-1c0-1.4-.72-2.49-2.17-3.27-1.45-.78-3.44-1.18-5.98-1.18s-4.52,.39-5.98,1.17-2.17,1.88-2.17,3.28v1Zm8.15-8.75c1.03,0,1.92-.37,2.65-1.1s1.1-1.63,1.1-2.7-.37-1.92-1.1-2.65c-.73-.73-1.62-1.1-2.65-1.1s-1.92,.37-2.65,1.1c-.73,.73-1.1,1.62-1.1,2.65s.37,1.97,1.1,2.7,1.62,1.1,2.65,1.1ZM0,40.6V3.4c0-.9,.34-1.69,1.02-2.38S2.5,0,3.4,0H37.2c.9,0,1.69,.34,2.38,1.02s1.03,1.48,1.03,2.38V29.2c0,.87-.34,1.65-1.03,2.35-.68,.7-1.47,1.05-2.37,1.05H8L0,40.6Zm3.4-8l3.45-3.4h30.35V3.4H3.4v29.2Zm0-29.2v0Z"/></g></svg>