<?xml version="1.0" encoding="UTF-8"?><svg id="Layer_2" xmlns="http://www.w3.org/2000/svg" viewBox="0 0 41.75 41.8"><defs><style>.cls-1{fill:#484848;}</style></defs><g id="Layer_1-2"><path class="cls-1" d="M3.4,41.8c-.9,0-1.69-.34-2.38-1.03S0,39.3,0,38.4V8.6c0-.93,.34-1.73,1.03-2.4,.68-.67,1.47-1,2.38-1H23.65l-3.4,3.4H3.4v29.8h29.8V21.45l3.4-3.45v20.4c0,.9-.33,1.69-1,2.38s-1.47,1.03-2.4,1.03H3.4ZM27.25,5.85l2.3,2.25-14.15,14.15v4.15h4.1l14.25-14.2,2.25,2.25-15.15,15.2H12.15v-8.7L27.25,5.85Zm8.75,8.6L27.25,5.85l4.85-4.85c.67-.67,1.47-1,2.42-1s1.76,.35,2.42,1.05l3.85,3.85c.63,.7,.95,1.51,.95,2.43s-.35,1.71-1.05,2.38l-4.7,4.75Z"/></g></svg>