<?xml version="1.0" encoding="UTF-8"?><svg id="Layer_2" xmlns="http://www.w3.org/2000/svg" viewBox="0 0 44 28"><defs><style>.cls-1{fill:#3cc;}</style></defs><g id="Layer_1-2"><path class="cls-1" d="M3,28c-.83,0-1.54-.29-2.12-.88s-.88-1.29-.88-2.12V3C0,2.17,.29,1.46,.88,.88s1.29-.88,2.12-.88H25c.83,0,1.54,.29,2.12,.88s.88,1.29,.88,2.12V25c0,.83-.29,1.54-.88,2.12s-1.29,.88-2.12,.88H3ZM34,12c-.57,0-1.04-.19-1.42-.58-.38-.38-.58-.86-.58-1.42V2c0-.57,.19-1.04,.58-1.43,.38-.38,.86-.57,1.42-.57h8c.57,0,1.04,.19,1.42,.57,.38,.38,.58,.86,.58,1.43V10c0,.57-.19,1.04-.58,1.42-.38,.38-.86,.58-1.42,.58h-8Zm1-3h6V3h-6v6ZM3,25H25V3H3V25Zm3-5H22l-5.25-7-3.75,5-2.75-3.65-4.25,5.65Zm28,8c-.57,0-1.04-.19-1.42-.58-.38-.38-.58-.86-.58-1.42v-8c0-.57,.19-1.04,.58-1.42,.38-.38,.86-.58,1.42-.58h8c.57,0,1.04,.19,1.42,.58,.38,.38,.58,.86,.58,1.42v8c0,.57-.19,1.04-.58,1.42-.38,.38-.86,.58-1.42,.58h-8Zm1-3h6v-6h-6v6Zm-32,0v0ZM35,9v0Zm0,16v0Z"/></g></svg>