<?xml version="1.0" encoding="UTF-8"?><svg id="Layer_2" xmlns="http://www.w3.org/2000/svg" viewBox="0 0 40 36.65"><defs><style>.cls-1{fill:#484848;}</style></defs><g id="Layer_1-2"><path class="cls-1" d="M20,36.65l-2.05-1.85c-3.53-3.23-6.45-6.03-8.75-8.38-2.3-2.35-4.13-4.45-5.5-6.3s-2.33-3.53-2.88-5.03c-.55-1.5-.82-3.02-.82-4.55C0,7.55,1.01,5.04,3.03,3.03,5.04,1.01,7.53,0,10.5,0c1.9,0,3.66,.45,5.27,1.35,1.62,.9,3.03,2.2,4.23,3.9,1.4-1.8,2.88-3.12,4.45-3.97,1.57-.85,3.25-1.28,5.05-1.28,2.97,0,5.46,1.01,7.47,3.03,2.02,2.02,3.03,4.53,3.03,7.52,0,1.53-.27,3.05-.83,4.55-.55,1.5-1.51,3.18-2.88,5.02-1.37,1.85-3.2,3.95-5.5,6.3-2.3,2.35-5.22,5.14-8.75,8.38l-2.05,1.85Zm0-3.95c3.37-3.1,6.14-5.76,8.33-7.98,2.18-2.22,3.92-4.16,5.2-5.82s2.18-3.15,2.7-4.45c.52-1.3,.78-2.6,.78-3.9,0-2.2-.7-4.01-2.1-5.43-1.4-1.42-3.2-2.12-5.4-2.12-1.7,0-3.28,.52-4.75,1.57s-2.65,2.53-3.55,4.43h-2.45c-.87-1.87-2.03-3.33-3.5-4.4-1.47-1.07-3.05-1.6-4.75-1.6-2.2,0-4,.71-5.4,2.12-1.4,1.42-2.1,3.23-2.1,5.43,0,1.3,.26,2.61,.78,3.92,.52,1.32,1.42,2.82,2.7,4.5,1.28,1.68,3.02,3.62,5.22,5.83,2.2,2.2,4.97,4.83,8.3,7.9Z"/></g></svg>