<?xml version="1.0" encoding="UTF-8"?><svg id="Layer_2" xmlns="http://www.w3.org/2000/svg" viewBox="0 0 40 36.65"><defs><style>.cls-1{fill:#f91880;}</style></defs><g id="Layer_2-2"><path class="cls-1" d="M20,36.65l-2.05-1.85c-3.53-3.23-6.45-6.03-8.75-8.38-2.3-2.35-4.13-4.45-5.5-6.3s-2.33-3.53-2.88-5.03c-.55-1.5-.82-3.02-.82-4.55C0,7.55,1.01,5.04,3.03,3.03,5.04,1.01,7.53,0,10.5,0c1.9,0,3.66,.45,5.27,1.35,1.62,.9,3.03,2.2,4.23,3.9,1.4-1.8,2.88-3.12,4.45-3.97,1.57-.85,3.25-1.28,5.05-1.28,2.97,0,5.46,1.01,7.47,3.03,2.02,2.02,3.03,4.53,3.03,7.52,0,1.53-.27,3.05-.83,4.55-.55,1.5-1.51,3.18-2.88,5.02-1.37,1.85-3.2,3.95-5.5,6.3-2.3,2.35-5.22,5.14-8.75,8.38l-2.05,1.85Z"/></g></svg>