<?xml version="1.0" encoding="UTF-8"?><svg id="Layer_2" xmlns="http://www.w3.org/2000/svg" viewBox="0 0 40 40"><defs><style>.cls-1{fill:#3cc;}</style></defs><g id="Layer_1-2"><path class="cls-1" d="M18.65,30h3v-12h-3v12Zm1.35-15.7c.47,0,.86-.15,1.17-.45s.48-.68,.48-1.15-.16-.87-.48-1.2c-.32-.33-.71-.5-1.17-.5s-.86,.17-1.17,.5-.48,.73-.48,1.2,.16,.85,.48,1.15c.32,.3,.71,.45,1.17,.45Zm0,25.7c-2.73,0-5.32-.52-7.75-1.58-2.43-1.05-4.56-2.48-6.38-4.3s-3.25-3.94-4.3-6.38c-1.05-2.43-1.57-5.03-1.57-7.8s.53-5.32,1.57-7.75c1.05-2.43,2.48-4.55,4.3-6.35,1.82-1.8,3.94-3.22,6.38-4.28,2.43-1.05,5.03-1.58,7.8-1.58s5.32,.53,7.75,1.57c2.43,1.05,4.55,2.48,6.35,4.28,1.8,1.8,3.23,3.92,4.28,6.35,1.05,2.43,1.58,5.03,1.58,7.8s-.52,5.32-1.58,7.75c-1.05,2.43-2.48,4.56-4.28,6.38-1.8,1.82-3.92,3.25-6.35,4.3-2.43,1.05-5.03,1.58-7.8,1.58Zm.05-3c4.7,0,8.7-1.66,12-4.97,3.3-3.32,4.95-7.34,4.95-12.08s-1.65-8.7-4.95-12c-3.3-3.3-7.32-4.95-12.05-4.95s-8.71,1.65-12.02,4.95c-3.32,3.3-4.98,7.32-4.98,12.05s1.66,8.71,4.98,12.03c3.32,3.32,7.34,4.97,12.07,4.97Z"/></g></svg>