<?xml version="1.0" encoding="UTF-8"?><svg id="Layer_2" xmlns="http://www.w3.org/2000/svg" viewBox="0 0 36.6 36.6"><defs><style>.cls-1{fill:#484848;}</style></defs><g id="Layer_1-2"><path class="cls-1" d="M8.2,28.3h13.75v-3H8.2v3Zm0-8.5H28.4v-3H8.2v3Zm0-8.5H28.4v-3H8.2v3ZM3.4,36.6c-.9,0-1.69-.34-2.38-1.03S0,34.1,0,33.2V3.4c0-.93,.34-1.73,1.03-2.4C1.71,.33,2.5,0,3.4,0h29.8c.93,0,1.73,.33,2.4,1,.67,.67,1,1.47,1,2.4v29.8c0,.9-.33,1.69-1,2.38s-1.47,1.03-2.4,1.02H3.4Zm0-3.4h29.8V3.4H3.4v29.8ZM3.4,3.4v0Z"/></g></svg>