<?xml version="1.0" encoding="UTF-8"?><svg id="Layer_2" xmlns="http://www.w3.org/2000/svg" viewBox="0 0 12 16"><defs><style>.cls-1{fill:#555;}</style></defs><g id="Layer_1-2"><path class="cls-1" d="M6,3.76c-.44,0-.86,.13-1.23,.37-.36,.24-.65,.58-.81,.98-.17,.4-.21,.84-.13,1.26,.09,.42,.3,.81,.6,1.12,.31,.31,.7,.51,1.13,.6,.43,.08,.87,.04,1.28-.12,.4-.17,.75-.45,.99-.81,.24-.36,.37-.78,.37-1.22,0-.58-.23-1.14-.65-1.55-.41-.41-.98-.64-1.56-.64h0Zm0,3.28c-.22,0-.43-.06-.61-.18s-.32-.29-.41-.49c-.08-.2-.11-.42-.06-.63,.04-.21,.15-.41,.3-.56,.15-.15,.35-.26,.57-.3,.21-.04,.44-.02,.64,.06,.2,.08,.37,.22,.5,.4,.12,.18,.19,.39,.19,.61,0,.29-.12,.57-.32,.77-.21,.21-.49,.32-.78,.32h0Z"/><path class="cls-1" d="M10.24,1.74C9.19,.7,7.79,.08,6.31,0c-1.48-.08-2.94,.39-4.09,1.32C1.07,2.25,.3,3.57,.07,5.02c-.23,1.45,.09,2.94,.9,4.17l4.17,6.35c.09,.14,.22,.26,.37,.34,.15,.08,.32,.12,.49,.12s.34-.04,.49-.12c.15-.08,.28-.2,.37-.34l4.17-6.35c.75-1.14,1.08-2.51,.94-3.86-.14-1.36-.75-2.62-1.72-3.59h0Zm-.14,6.85l-4.1,6.24L1.9,8.6c-1.26-1.91-.99-4.47,.64-6.08,.45-.45,.99-.81,1.59-1.05,.59-.24,1.23-.37,1.87-.37s1.28,.13,1.87,.37c.59,.24,1.13,.6,1.59,1.05,1.63,1.61,1.9,4.17,.64,6.08Z"/></g></svg>