<?xml version="1.0" encoding="UTF-8"?><svg id="Layer_2" xmlns="http://www.w3.org/2000/svg" viewBox="0 0 310.63 56.42"><defs><style>.cls-1{fill:#3cc;}</style></defs><g id="Layer_1-2"><g><g><path class="cls-1" d="M128.05,15.27h6.67V3.26h8.83V15.27h7.98v6.59h-7.98v21.39c0,.93,.04,1.73,.12,2.4,.08,.67,.26,1.24,.54,1.71,.28,.46,.71,.81,1.28,1.05,.57,.23,1.34,.35,2.33,.35,.62,0,1.24-.01,1.86-.04,.62-.03,1.24-.12,1.86-.27v6.82c-.98,.1-1.94,.21-2.87,.31-.93,.1-1.89,.16-2.87,.16-2.32,0-4.2-.22-5.62-.66-1.42-.44-2.53-1.08-3.33-1.94-.8-.85-1.34-1.92-1.63-3.22-.29-1.29-.45-2.76-.5-4.42V21.86h-6.67v-6.59Z"/><path class="cls-1" d="M157.34,0h8.83V20.46h.16c.62-.98,1.37-1.86,2.25-2.64,.88-.77,1.85-1.43,2.91-1.98,1.06-.54,2.17-.96,3.33-1.24,1.16-.28,2.31-.43,3.45-.43,3.15,0,5.9,.56,8.25,1.67,2.35,1.11,4.3,2.63,5.85,4.57,1.55,1.94,2.71,4.2,3.49,6.78,.77,2.58,1.16,5.35,1.16,8.29,0,2.69-.35,5.3-1.05,7.83-.7,2.53-1.76,4.77-3.18,6.7-1.42,1.94-3.22,3.49-5.39,4.65-2.17,1.16-4.73,1.74-7.67,1.74-1.34,0-2.7-.09-4.07-.27-1.37-.18-2.67-.53-3.91-1.05-1.24-.52-2.36-1.19-3.37-2.02-1.01-.83-1.85-1.91-2.52-3.25h-.15v5.5h-8.37V0Zm30.84,35.34c0-1.81-.23-3.57-.7-5.27s-1.16-3.22-2.09-4.53-2.09-2.38-3.49-3.18c-1.4-.8-3-1.2-4.8-1.2-3.72,0-6.52,1.29-8.41,3.88-1.89,2.58-2.83,6.02-2.83,10.31,0,2.01,.25,3.89,.74,5.62,.49,1.73,1.23,3.22,2.21,4.46,.98,1.24,2.16,2.22,3.53,2.94,1.37,.72,2.96,1.08,4.77,1.08,2.01,0,3.72-.41,5.11-1.24,1.4-.83,2.54-1.9,3.45-3.22,.9-1.32,1.55-2.82,1.94-4.5,.39-1.68,.58-3.4,.58-5.15Z"/><path class="cls-1" d="M222.05,56.42c-3.2,0-6.06-.53-8.56-1.59-2.51-1.06-4.62-2.52-6.36-4.38-1.73-1.86-3.05-4.08-3.95-6.67-.91-2.58-1.36-5.42-1.36-8.53s.45-5.86,1.36-8.45c.9-2.58,2.22-4.8,3.95-6.67,1.73-1.86,3.85-3.32,6.36-4.38,2.5-1.06,5.36-1.59,8.56-1.59s6.06,.53,8.56,1.59c2.51,1.06,4.62,2.52,6.36,4.38,1.73,1.86,3.05,4.08,3.95,6.67,.9,2.58,1.36,5.4,1.36,8.45s-.45,5.94-1.36,8.53c-.9,2.58-2.22,4.8-3.95,6.67-1.73,1.86-3.85,3.32-6.36,4.38s-5.36,1.59-8.56,1.59Zm0-6.98c1.96,0,3.67-.41,5.12-1.24,1.45-.83,2.63-1.91,3.56-3.26,.93-1.34,1.61-2.85,2.05-4.53,.44-1.68,.66-3.4,.66-5.15s-.22-3.41-.66-5.11c-.44-1.71-1.12-3.22-2.05-4.53-.93-1.32-2.12-2.39-3.56-3.22-1.45-.83-3.15-1.24-5.12-1.24s-3.67,.41-5.12,1.24c-1.45,.83-2.63,1.9-3.56,3.22-.93,1.32-1.62,2.83-2.05,4.53-.44,1.71-.66,3.41-.66,5.11s.22,3.48,.66,5.15c.44,1.68,1.12,3.19,2.05,4.53,.93,1.34,2.12,2.43,3.56,3.26,1.45,.83,3.15,1.24,5.12,1.24Z"/><path class="cls-1" d="M282.42,46.42c0,1.08,.14,1.86,.43,2.33,.28,.46,.84,.7,1.67,.7h.93c.36,0,.77-.05,1.24-.15v6.12c-.31,.1-.71,.22-1.2,.35s-1,.25-1.51,.35c-.52,.1-1.03,.18-1.55,.23-.52,.05-.96,.08-1.32,.08-1.81,0-3.31-.36-4.5-1.08-1.19-.72-1.96-1.99-2.33-3.8-1.76,1.71-3.91,2.95-6.47,3.72-2.56,.78-5.03,1.16-7.4,1.16-1.81,0-3.54-.25-5.19-.74-1.65-.49-3.11-1.21-4.38-2.17-1.27-.96-2.27-2.17-3.02-3.64s-1.12-3.19-1.12-5.15c0-2.48,.45-4.5,1.36-6.04,.9-1.55,2.09-2.76,3.57-3.64,1.47-.88,3.12-1.51,4.96-1.9,1.83-.39,3.68-.68,5.54-.89,1.6-.31,3.13-.53,4.57-.66,1.45-.13,2.72-.35,3.84-.66,1.11-.31,1.99-.79,2.63-1.43s.97-1.61,.97-2.91c0-1.14-.27-2.07-.81-2.79-.54-.72-1.21-1.28-2.02-1.67s-1.69-.65-2.67-.78c-.98-.13-1.91-.19-2.79-.19-2.48,0-4.52,.52-6.12,1.55-1.6,1.03-2.51,2.63-2.71,4.8h-8.83c.16-2.58,.78-4.73,1.86-6.43,1.08-1.7,2.47-3.07,4.15-4.11,1.68-1.03,3.58-1.76,5.7-2.17,2.12-.41,4.29-.62,6.51-.62,1.96,0,3.9,.21,5.81,.62,1.91,.41,3.63,1.08,5.15,2.02,1.52,.93,2.75,2.13,3.68,3.6s1.4,3.27,1.4,5.39v20.62Zm-8.83-11.16c-1.34,.88-3,1.41-4.96,1.59-1.96,.18-3.93,.45-5.89,.81-.93,.15-1.83,.38-2.71,.66-.88,.29-1.65,.67-2.33,1.16-.67,.49-1.2,1.14-1.59,1.94s-.58,1.77-.58,2.91c0,.98,.28,1.81,.85,2.48,.57,.67,1.25,1.2,2.05,1.59,.8,.39,1.68,.66,2.63,.81,.96,.16,1.82,.23,2.6,.23,.98,0,2.04-.13,3.18-.39,1.14-.26,2.21-.7,3.22-1.32,1.01-.62,1.85-1.41,2.52-2.36,.67-.96,1.01-2.13,1.01-3.53v-6.59Z"/><path class="cls-1" d="M287.15,15.27h6.67V3.26h8.83V15.27h7.98v6.59h-7.98v21.39c0,.93,.04,1.73,.12,2.4,.08,.67,.26,1.24,.54,1.71,.28,.46,.71,.81,1.28,1.05,.57,.23,1.34,.35,2.33,.35,.62,0,1.24-.01,1.86-.04,.62-.03,1.24-.12,1.86-.27v6.82c-.98,.1-1.94,.21-2.87,.31-.93,.1-1.89,.16-2.87,.16-2.32,0-4.2-.22-5.62-.66-1.42-.44-2.53-1.08-3.33-1.94-.8-.85-1.34-1.92-1.63-3.22-.29-1.29-.45-2.76-.5-4.42V21.86h-6.67v-6.59Z"/></g><path class="cls-1" d="M99.35,34.26l-13.87-18.99h10.7l8.37,12.32,8.76-12.32h10.23l-13.64,18.52,15.34,21.54h-10.62l-10.15-14.8-9.84,14.8h-10.38l15.11-21.08Z"/><g><path class="cls-1" d="M0,14.18H8.37v5.89l.15,.16c1.34-2.22,3.1-3.96,5.27-5.23,2.17-1.27,4.57-1.9,7.21-1.9,4.39,0,7.85,1.14,10.39,3.41,2.53,2.27,3.8,5.68,3.8,10.23v27.51h-8.83V29.06c-.1-3.15-.77-5.44-2.01-6.86-1.24-1.42-3.18-2.13-5.81-2.13-1.5,0-2.84,.27-4.03,.81-1.19,.54-2.2,1.29-3.02,2.25-.83,.96-1.47,2.08-1.94,3.37-.46,1.29-.7,2.66-.7,4.11v23.64H0V14.18Z"/><path class="cls-1" d="M49.37,36.5c0,1.55,.22,3.05,.66,4.5,.44,1.45,1.1,2.71,1.98,3.8,.88,1.08,1.99,1.95,3.33,2.6,1.34,.65,2.95,.97,4.81,.97,2.58,0,4.66-.55,6.24-1.67,1.58-1.11,2.75-2.78,3.53-5h8.37c-.46,2.17-1.27,4.11-2.4,5.81-1.14,1.71-2.51,3.14-4.11,4.3-1.6,1.16-3.4,2.04-5.39,2.64-1.99,.59-4.07,.89-6.24,.89-3.15,0-5.94-.52-8.37-1.55-2.43-1.03-4.48-2.48-6.16-4.34-1.68-1.86-2.95-4.08-3.8-6.67-.85-2.58-1.28-5.42-1.28-8.53,0-2.84,.45-5.54,1.36-8.1,.9-2.56,2.2-4.8,3.88-6.74s3.71-3.47,6.08-4.61c2.38-1.14,5.06-1.71,8.06-1.71,3.15,0,5.98,.66,8.49,1.98,2.5,1.32,4.58,3.06,6.24,5.23,1.65,2.17,2.85,4.66,3.6,7.48,.75,2.82,.94,5.72,.58,8.72h-29.45Zm20.62-5.81c-.1-1.4-.4-2.74-.89-4.03-.49-1.29-1.16-2.42-2.01-3.37s-1.89-1.73-3.1-2.33c-1.21-.59-2.57-.89-4.07-.89s-2.96,.27-4.22,.81c-1.27,.54-2.35,1.29-3.26,2.25-.9,.96-1.63,2.08-2.17,3.37-.54,1.29-.84,2.69-.89,4.19h20.62Z"/></g><polygon class="cls-1" points="96.17 15.27 109.89 33.79 94.62 55.33 84.24 55.33 99.35 34.26 85.41 15.27 96.17 15.27"/><polygon class="cls-1" points="95.98 34.26 79.96 55.33 75.06 55.33 91.08 34.26 76.3 15.27 81.2 15.27 95.98 34.26"/></g></g></svg>