<?xml version="1.0" encoding="UTF-8"?><svg id="Layer_2" xmlns="http://www.w3.org/2000/svg" viewBox="0 0 120 120"><defs><style>.cls-1{fill:#ebebeb;}.cls-2{fill:#484848;}</style></defs><g id="Layer_1-2"><circle class="cls-1" cx="60" cy="60" r="60"/><path class="cls-2" d="M27.61,83.86c-1.42,0-2.63-.5-3.62-1.49s-1.49-2.2-1.49-3.62V41.25c0-1.42,.5-2.63,1.49-3.62s2.2-1.49,3.62-1.49h37.5c1.42,0,2.63,.5,3.62,1.49s1.49,2.2,1.49,3.62v37.5c0,1.42-.5,2.63-1.49,3.62s-2.2,1.49-3.62,1.49H27.61Zm52.84-27.27c-.97,0-1.78-.33-2.43-.98-.65-.65-.98-1.46-.98-2.43v-13.64c0-.97,.33-1.78,.98-2.43,.65-.65,1.46-.98,2.43-.98h13.64c.97,0,1.78,.33,2.43,.98,.65,.65,.98,1.46,.98,2.43v13.64c0,.97-.33,1.78-.98,2.43-.65,.65-1.46,.98-2.43,.98h-13.64Zm1.7-5.11h10.23v-10.23h-10.23v10.23Zm-54.55,27.27h37.5V41.25H27.61v37.5Zm5.11-8.52h27.27l-8.95-11.93-6.39,8.52-4.69-6.22-7.24,9.63Zm47.73,13.64c-.97,0-1.78-.33-2.43-.98-.65-.65-.98-1.46-.98-2.43v-13.64c0-.97,.33-1.78,.98-2.43,.65-.65,1.46-.98,2.43-.98h13.64c.97,0,1.78,.33,2.43,.98,.65,.65,.98,1.46,.98,2.43v13.64c0,.97-.33,1.78-.98,2.43-.65,.65-1.46,.98-2.43,.98h-13.64Zm1.7-5.11h10.23v-10.23h-10.23v10.23Zm-54.55,0v0Zm54.55-27.27v0Zm0,27.27v0Z"/></g></svg>