<?xml version="1.0" encoding="UTF-8"?><svg id="Layer_2" xmlns="http://www.w3.org/2000/svg" viewBox="0 0 120 120"><defs><style>.cls-1{fill:#ebebeb;}.cls-2{fill:#484848;}</style></defs><g id="Layer_1-2"><circle class="cls-1" cx="60" cy="60" r="60"/><path class="cls-2" d="M34.91,85.09h3.6l36.26-36.26-3.6-3.6-36.26,36.26v3.6Zm50.26-39.78l-10.48-10.48,3.44-3.44c.93-.93,2.07-1.39,3.44-1.39,1.36,0,2.51,.46,3.44,1.39l3.6,3.6c.93,.93,1.39,2.07,1.39,3.44s-.46,2.51-1.39,3.44l-3.44,3.44Zm-3.44,3.44l-41.26,41.26h-10.48v-10.48l41.26-41.26,10.48,10.48Zm-8.76-1.72l-1.8-1.8,3.6,3.6-1.8-1.8Z"/></g></svg>