<?xml version="1.0" encoding="UTF-8"?><svg id="Layer_2" xmlns="http://www.w3.org/2000/svg" viewBox="0 0 120 120"><defs><style>.cls-1{fill:#ebebeb;}.cls-2{fill:#484848;}</style></defs><g id="Layer_1-2"><circle class="cls-1" cx="60" cy="60" r="60"/><path class="cls-2" d="M41.75,90c-1.39,0-2.57-.49-3.54-1.46-.97-.97-1.46-2.15-1.46-3.54V37.5h-3.42v-5h15.67v-2.5h22v2.5h15.67v5h-3.42v47.5c0,1.33-.5,2.5-1.5,3.5s-2.17,1.5-3.5,1.5H41.75Zm36.5-52.5H41.75v47.5h36.5V37.5Zm-27.67,40.33h5V44.58h-5v33.25Zm13.83,0h5V44.58h-5v33.25Zm-22.67-40.33v0Z"/></g></svg>