<?xml version="1.0" encoding="UTF-8"?><svg id="Layer_2" xmlns="http://www.w3.org/2000/svg" viewBox="0 0 40.6 40.6"><defs><style>.cls-1{fill:#3cc;}</style></defs><g id="Layer_2-2"><path class="cls-1" d="M20.5,31.95c.53,0,.99-.19,1.38-.58,.38-.38,.58-.86,.58-1.42s-.19-1.04-.58-1.42c-.38-.38-.86-.58-1.42-.58-.53,0-.99,.19-1.38,.58-.38,.38-.57,.86-.58,1.42,0,.57,.19,1.04,.58,1.42,.38,.38,.86,.58,1.42,.58Zm-1.85-7.3h3.1c0-.87,.11-1.66,.33-2.38,.22-.72,.88-1.52,1.98-2.42,1.03-.83,1.77-1.68,2.2-2.52,.43-.85,.65-1.77,.65-2.77,0-1.8-.57-3.23-1.7-4.3-1.13-1.07-2.67-1.6-4.6-1.6-1.63,0-3.09,.42-4.38,1.25-1.28,.83-2.21,1.98-2.78,3.45l2.8,1.1c.4-.93,.96-1.66,1.67-2.18,.72-.52,1.56-.77,2.53-.77,1.03,0,1.88,.29,2.55,.88,.67,.58,1,1.34,1,2.27,0,.7-.21,1.38-.62,2.02-.42,.65-1.03,1.29-1.83,1.92-.97,.87-1.69,1.73-2.17,2.6-.48,.87-.73,2.02-.72,3.45Zm1.65,15.95c-2.77,0-5.39-.53-7.88-1.6s-4.64-2.52-6.48-4.35c-1.83-1.83-3.28-3.98-4.35-6.45s-1.6-5.1-1.6-7.9,.53-5.44,1.6-7.92c1.07-2.48,2.52-4.63,4.35-6.45,1.83-1.82,3.98-3.26,6.45-4.33,2.47-1.07,5.1-1.6,7.9-1.6s5.44,.53,7.92,1.6c2.48,1.07,4.63,2.51,6.45,4.32,1.82,1.82,3.26,3.96,4.33,6.42,1.07,2.47,1.6,5.12,1.6,7.95s-.53,5.43-1.6,7.9-2.51,4.62-4.33,6.45c-1.82,1.83-3.96,3.28-6.42,4.35-2.47,1.07-5.12,1.6-7.95,1.6Zm0-3.4c4.7,0,8.69-1.65,11.97-4.95s4.92-7.28,4.93-11.95c0-4.7-1.64-8.69-4.92-11.98-3.28-3.28-7.27-4.93-11.98-4.92-4.67,0-8.65,1.64-11.95,4.92-3.3,3.28-4.95,7.28-4.95,11.98s1.65,8.65,4.95,11.95c3.3,3.3,7.28,4.95,11.95,4.95Z"/></g></svg>