<?xml version="1.0" encoding="UTF-8"?><svg id="Layer_2" xmlns="http://www.w3.org/2000/svg" viewBox="0 0 40.8 40.6"><defs><style>.cls-1{fill:#484848;}</style></defs><g id="Layer_1-2"><path class="cls-1" d="M15.55,40.6l-1.05-6.4c-.57-.2-1.18-.49-1.85-.88-.67-.38-1.25-.78-1.75-1.17l-5.95,2.75L0,26.2l5.5-4c-.07-.27-.11-.58-.12-.95-.02-.37-.02-.68-.02-.95s0-.58,.02-.95c.02-.37,.06-.68,.12-.95L0,14.4,4.95,5.7l6,2.75c.47-.4,1.03-.78,1.7-1.15,.67-.37,1.28-.65,1.85-.85L15.55,0h9.7l1.05,6.4c.57,.23,1.19,.53,1.88,.88,.68,.35,1.26,.74,1.73,1.18l6-2.75,4.9,8.7-5.5,3.9c.07,.3,.11,.63,.12,1,.02,.37,.03,.7,.03,1s0,.63-.03,.98-.06,.68-.12,.98l5.5,3.95-4.95,8.7-6-2.75c-.47,.4-1.03,.8-1.67,1.2-.65,.4-1.28,.68-1.88,.85l-1.05,6.4H15.55Zm4.85-13.8c1.8,0,3.33-.63,4.6-1.9s1.9-2.8,1.9-4.6-.63-3.33-1.9-4.6-2.8-1.9-4.6-1.9-3.33,.63-4.6,1.9-1.9,2.8-1.9,4.6,.63,3.33,1.9,4.6,2.8,1.9,4.6,1.9Zm0-3c-1,0-1.83-.34-2.5-1.02-.67-.68-1-1.51-1-2.48s.33-1.79,1-2.48c.67-.68,1.5-1.02,2.5-1.02s1.79,.34,2.48,1.02c.68,.68,1.02,1.51,1.02,2.48s-.34,1.79-1.02,2.48c-.68,.68-1.51,1.02-2.48,1.02Zm-2.1,13.4h4.2l.7-5.6c1.1-.27,2.15-.68,3.15-1.25s1.9-1.27,2.7-2.1l5.3,2.3,1.9-3.45-4.7-3.4c.13-.57,.25-1.13,.35-1.7,.1-.57,.15-1.13,.15-1.7s-.04-1.13-.12-1.7c-.08-.57-.21-1.13-.38-1.7l4.7-3.4-1.9-3.45-5.3,2.3c-.77-.9-1.64-1.65-2.62-2.25-.98-.6-2.06-.97-3.23-1.1l-.7-5.6h-4.2l-.7,5.6c-1.13,.2-2.2,.59-3.2,1.18-1,.58-1.9,1.31-2.7,2.18l-5.25-2.3-1.9,3.45,4.65,3.4c-.13,.57-.24,1.13-.32,1.7-.08,.57-.12,1.13-.12,1.7,0,.57,.04,1.13,.12,1.7,.08,.57,.19,1.13,.32,1.7l-4.65,3.4,1.9,3.45,5.25-2.3c.83,.83,1.75,1.53,2.75,2.1s2.05,.98,3.15,1.25l.7,5.6Z"/></g></svg>