<?xml version="1.0" encoding="UTF-8"?><svg id="Layer_2" xmlns="http://www.w3.org/2000/svg" viewBox="0 0 32 44"><defs><style>.cls-1{fill:#484848;}</style></defs><g id="Layer_1-2"><path class="cls-1" d="M3,44c-.8,0-1.5-.3-2.1-.9-.6-.6-.9-1.3-.9-2.1V15.55c0-.8,.3-1.5,.9-2.1,.6-.6,1.3-.9,2.1-.9H11.45v3H3v25.45H29V15.55h-8.55v-3h8.55c.8,0,1.5,.3,2.1,.9,.6,.6,.9,1.3,.9,2.1v25.45c0,.8-.3,1.5-.9,2.1-.6,.6-1.3,.9-2.1,.9H3Zm11.45-15.35V5.8l-4.4,4.4-2.15-2.15L15.95,0l8.05,8.05-2.15,2.15-4.4-4.4V28.65h-3Z"/></g></svg>