<?xml version="1.0" encoding="UTF-8"?><svg id="Layer_2" xmlns="http://www.w3.org/2000/svg" viewBox="0 0 32.6 32.25"><defs><style>.cls-1{fill:#484848;}</style></defs><g id="Layer_1-2"><path class="cls-1" d="M16.3,15.6c-2.3,0-4.18-.73-5.62-2.17s-2.17-3.32-2.17-5.62,.73-4.18,2.17-5.62S14,0,16.3,0s4.18,.73,5.62,2.18,2.17,3.32,2.17,5.62c0,2.3-.73,4.18-2.17,5.62s-3.32,2.17-5.62,2.17ZM0,32.25v-5c0-1.33,.33-2.47,1-3.42,.67-.95,1.52-1.68,2.55-2.17,2.27-1,4.43-1.75,6.5-2.25,2.07-.5,4.15-.75,6.25-.75,2.1,0,4.18,.26,6.23,.77,2.05,.52,4.21,1.27,6.48,2.27,1.07,.47,1.93,1.18,2.6,2.13,.67,.95,1,2.09,1,3.42v5H0Zm3.4-3.4H29.2v-1.55c0-.53-.16-1.04-.47-1.53s-.71-.84-1.17-1.08c-2.1-1-4.02-1.69-5.77-2.08-1.75-.38-3.58-.57-5.48-.57s-3.74,.19-5.52,.58c-1.78,.38-3.71,1.07-5.78,2.08-.47,.23-.85,.59-1.15,1.08-.3,.48-.45,.99-.45,1.53v1.55ZM16.3,12.2c1.27,0,2.32-.42,3.15-1.25,.83-.83,1.25-1.88,1.25-3.15s-.42-2.32-1.25-3.15c-.83-.83-1.88-1.25-3.15-1.25-1.27,0-2.32,.42-3.15,1.25-.83,.83-1.25,1.88-1.25,3.15s.42,2.32,1.25,3.15c.83,.83,1.88,1.25,3.15,1.25Z"/></g></svg>